<svg width="20" height="20" viewBox="0 0 20 20" fill="none" xmlns="http://www.w3.org/2000/svg">
<g id="18817157721579362055 1" clip-path="url(#clip0_49_21121)">
<g id="Layer 10">
<path id="Vector" d="M17.5 5.625H5.3125V2.5C5.3125 2.33424 5.37835 2.17527 5.49556 2.05806C5.61277 1.94085 5.77174 1.875 5.9375 1.875H13.75C13.9158 1.875 14.0747 1.94085 14.1919 2.05806C14.3092 2.17527 14.375 2.33424 14.375 2.5V4.375C14.375 4.54076 14.4408 4.69973 14.5581 4.81694C14.6753 4.93415 14.8342 5 15 5C15.1658 5 15.3247 4.93415 15.4419 4.81694C15.5592 4.69973 15.625 4.54076 15.625 4.375V2.5C15.625 2.00272 15.4275 1.52581 15.0758 1.17417C14.7242 0.822544 14.2473 0.625 13.75 0.625H5.9375C5.44022 0.625 4.96331 0.822544 4.61167 1.17417C4.26004 1.52581 4.0625 2.00272 4.0625 2.5V5.625H2.5C2.00272 5.625 1.52581 5.82254 1.17417 6.17417C0.822544 6.52581 0.625 7.00272 0.625 7.5V13.125C0.625 13.6223 0.822544 14.0992 1.17417 14.4508C1.52581 14.8025 2.00272 15 2.5 15H4.0625V17.1875C4.0625 17.6848 4.26004 18.1617 4.61167 18.5133C4.96331 18.865 5.44022 19.0625 5.9375 19.0625H14.0625C14.5598 19.0625 15.0367 18.865 15.3883 18.5133C15.74 18.1617 15.9375 17.6848 15.9375 17.1875V15H17.5C17.9973 15 18.4742 14.8025 18.8258 14.4508C19.1775 14.0992 19.375 13.6223 19.375 13.125V7.5C19.375 7.00272 19.1775 6.52581 18.8258 6.17417C18.4742 5.82254 17.9973 5.625 17.5 5.625ZM16.25 10C16.0028 10 15.7611 9.92669 15.5555 9.78934C15.35 9.65199 15.1898 9.45676 15.0951 9.22835C15.0005 8.99995 14.9758 8.74861 15.024 8.50614C15.0722 8.26366 15.1913 8.04093 15.3661 7.86612C15.5409 7.6913 15.7637 7.57225 16.0061 7.52402C16.2486 7.47579 16.4999 7.50054 16.7284 7.59515C16.9568 7.68976 17.152 7.84998 17.2893 8.05554C17.4267 8.2611 17.5 8.50277 17.5 8.75C17.5 9.08152 17.3683 9.39946 17.1339 9.63388C16.8995 9.8683 16.5815 10 16.25 10ZM14.6875 17.1875C14.6875 17.3533 14.6217 17.5122 14.5044 17.6294C14.3872 17.7467 14.2283 17.8125 14.0625 17.8125H5.9375C5.77174 17.8125 5.61277 17.7467 5.49556 17.6294C5.37835 17.5122 5.3125 17.3533 5.3125 17.1875V13.75C5.3125 13.5842 5.37835 13.4253 5.49556 13.3081C5.61277 13.1908 5.77174 13.125 5.9375 13.125H14.0625C14.2283 13.125 14.3872 13.1908 14.5044 13.3081C14.6217 13.4253 14.6875 13.5842 14.6875 13.75V17.1875Z" fill="white"/>
</g>
</g>
<defs>
<clipPath id="clip0_49_21121">
<rect width="20" height="20" fill="white"/>
</clipPath>
</defs>
</svg>
